<svg width="24" height="24" viewBox="0 0 24 24" fill="none" xmlns="http://www.w3.org/2000/svg">
<path d="M21.2753 1.90538C18.1114 4.64363 15.4346 7.25025 12.984 10.6511C11.9033 12.1511 10.7014 13.9166 9.91575 15.5835C9.46725 16.4674 8.65875 17.8485 8.38313 19.1764C6.87563 17.7739 5.25638 16.182 3.59963 14.9351C2.41875 14.0468 -0.9825 15.858 0.402 16.8998C2.88338 18.7661 4.947 21.0908 7.3605 23.0404C8.37 23.8549 10.6073 22.086 11.133 21.3439C12.8588 18.8989 13.0946 15.9101 14.3524 13.2431C16.2728 9.16425 19.6785 5.81363 23.0411 2.904C25.269 0.826125 22.968 0.442875 21.2786 1.90538" fill="#37B34A"/>
</svg>
