<svg width="22" height="23" viewBox="0 0 22 23" fill="none" xmlns="http://www.w3.org/2000/svg">
<path d="M21 19.42V16.42C21.0122 15.9296 20.8437 15.4518 20.5265 15.0775C20.2094 14.7032 19.7658 14.4585 19.28 14.39C18.3199 14.2634 17.3773 14.0285 16.47 13.69C16.1121 13.5554 15.7231 13.5263 15.3491 13.6061C14.9751 13.6858 14.6319 13.8711 14.36 14.14L13.09 15.41C10.5864 13.9864 8.51355 11.9135 7.08999 9.40997L8.35999 8.13998C8.62886 7.86809 8.81415 7.52482 8.8939 7.15086C8.97366 6.77689 8.94454 6.3879 8.80999 6.02997C8.47144 5.1227 8.23662 4.18004 8.10999 3.21997C8.04207 2.73942 7.80173 2.29996 7.43376 1.98351C7.06579 1.66705 6.5953 1.4952 6.10999 1.49997H3.10999C2.83233 1.50024 2.55777 1.55831 2.30379 1.6705C2.0498 1.78268 1.82196 1.94653 1.63476 2.1516C1.44756 2.35666 1.30512 2.59846 1.21649 2.8616C1.12787 3.12474 1.095 3.40344 1.11999 3.67997C1.44824 6.77097 2.49997 9.74118 4.18999 12.35C5.72533 14.7661 7.77382 16.8146 10.19 18.35C12.787 20.0341 15.7428 21.0856 18.82 21.42C19.0974 21.445 19.3769 21.4119 19.6407 21.3227C19.9046 21.2335 20.1469 21.0901 20.3521 20.9018C20.5573 20.7136 20.7209 20.4845 20.8325 20.2293C20.9441 19.9741 21.0011 19.6985 21 19.42Z" stroke="#433F3E" stroke-width="2" stroke-linecap="round" stroke-linejoin="round"/>
</svg>
