<svg width="36" height="36" viewBox="0 0 36 36" fill="none" xmlns="http://www.w3.org/2000/svg">
<rect width="36" height="36" rx="18" fill="#F6F6F6"/>
<path d="M23.3334 24V22.6667C23.3334 21.9594 23.0524 21.2811 22.5523 20.781C22.0522 20.281 21.3739 20 20.6667 20H15.3334C14.6261 20 13.9478 20.281 13.4477 20.781C12.9476 21.2811 12.6667 21.9594 12.6667 22.6667V24" stroke="#B1B2B2" stroke-width="2" stroke-linecap="round" stroke-linejoin="round"/>
<path d="M18 17.3333C19.4727 17.3333 20.6666 16.1394 20.6666 14.6667C20.6666 13.1939 19.4727 12 18 12C16.5272 12 15.3333 13.1939 15.3333 14.6667C15.3333 16.1394 16.5272 17.3333 18 17.3333Z" stroke="#B1B2B2" stroke-width="2" stroke-linecap="round" stroke-linejoin="round"/>
</svg>
