<svg width="48" height="48" viewBox="0 0 48 48" fill="none" xmlns="http://www.w3.org/2000/svg">
<path d="M36.0001 36C36.7957 36 37.5588 35.6839 38.1214 35.1213C38.684 34.5587 39.0001 33.7956 39.0001 33V25.674C39.0001 24.8783 38.684 24.1153 38.1214 23.5527C37.5588 22.9901 36.7957 22.674 36.0001 22.674H31.8361C31.8361 21.62 31.8981 20.566 32.0221 19.512C32.2081 18.396 32.5181 17.404 32.9521 16.536C33.3861 15.668 33.9451 14.985 34.6291 14.487C35.3091 13.929 36.1771 13.65 37.2331 13.65V9C35.4971 9 33.9771 9.372 32.6731 10.116C31.3781 10.8506 30.2655 11.8679 29.4181 13.092C28.5649 14.4394 27.9367 15.9168 27.5581 17.466C27.1752 19.1752 26.988 20.9225 27.0001 22.674V33C27.0001 33.7956 27.3161 34.5587 27.8787 35.1213C28.4413 35.6839 29.2044 36 30.0001 36H36.0001ZM18.0001 36C18.7957 36 19.5588 35.6839 20.1214 35.1213C20.684 34.5587 21.0001 33.7956 21.0001 33V25.674C21.0001 24.8783 20.684 24.1153 20.1214 23.5527C19.5588 22.9901 18.7957 22.674 18.0001 22.674H13.8361C13.8361 21.62 13.8981 20.566 14.0221 19.512C14.2101 18.396 14.5201 17.404 14.9521 16.536C15.3861 15.668 15.9451 14.985 16.6291 14.487C17.3091 13.929 18.1771 13.65 19.2331 13.65V9C17.4971 9 15.9771 9.372 14.6731 10.116C13.3781 10.8506 12.2655 11.8679 11.4181 13.092C10.5649 14.4394 9.93668 15.9168 9.55806 17.466C9.17521 19.1752 8.98801 20.9225 9.00006 22.674V33C9.00006 33.7956 9.31613 34.5587 9.87874 35.1213C10.4413 35.6839 11.2044 36 12.0001 36H18.0001Z" fill="black"/>
</svg>
