<svg width="48" height="48" viewBox="0 0 48 48" fill="none" xmlns="http://www.w3.org/2000/svg">
<path d="M11.9999 12C11.2043 12 10.4412 12.3161 9.87862 12.8787C9.31601 13.4413 8.99994 14.2044 8.99994 15L8.99994 22.326C8.99994 23.1217 9.31601 23.8847 9.87862 24.4473C10.4412 25.0099 11.2043 25.326 11.9999 25.326H16.1639C16.1639 26.38 16.1019 27.434 15.9779 28.488C15.7919 29.604 15.4819 30.596 15.0479 31.464C14.6139 32.332 14.0549 33.015 13.3709 33.513C12.6909 34.071 11.8229 34.35 10.7669 34.35V39C12.5029 39 14.0229 38.628 15.3269 37.884C16.6219 37.1494 17.7345 36.1321 18.5819 34.908C19.4351 33.5606 20.0633 32.0832 20.4419 30.534C20.8248 28.8248 21.012 27.0775 20.9999 25.326L20.9999 15C20.9999 14.2044 20.6839 13.4413 20.1213 12.8787C19.5587 12.3161 18.7956 12 17.9999 12H11.9999ZM29.9999 12C29.2043 12 28.4412 12.3161 27.8786 12.8787C27.316 13.4413 26.9999 14.2044 26.9999 15V22.326C26.9999 23.1217 27.316 23.8847 27.8786 24.4473C28.4412 25.0099 29.2043 25.326 29.9999 25.326H34.1639C34.1639 26.38 34.1019 27.434 33.9779 28.488C33.7899 29.604 33.4799 30.596 33.0479 31.464C32.6139 32.332 32.0549 33.015 31.3709 33.513C30.6909 34.071 29.8229 34.35 28.7669 34.35V39C30.5029 39 32.0229 38.628 33.3269 37.884C34.6219 37.1494 35.7345 36.1321 36.5819 34.908C37.4351 33.5606 38.0633 32.0832 38.4419 30.534C38.8248 28.8248 39.012 27.0775 38.9999 25.326V15C38.9999 14.2044 38.6839 13.4413 38.1213 12.8787C37.5587 12.3161 36.7956 12 35.9999 12L29.9999 12Z" fill="black"/>
</svg>
