<svg width="150" height="150" viewBox="0 0 150 150" fill="none" xmlns="http://www.w3.org/2000/svg">
<path d="M99.6941 63.744V70.56H78.5741V63.744H99.6941Z" fill="#408C2B"/>
<path d="M56.25 137.5C59.7018 137.5 62.5 134.702 62.5 131.25C62.5 127.798 59.7018 125 56.25 125C52.7982 125 50 127.798 50 131.25C50 134.702 52.7982 137.5 56.25 137.5Z" stroke="#408C2B" stroke-width="8" stroke-linecap="round" stroke-linejoin="round"/>
<path d="M125 137.5C128.452 137.5 131.25 134.702 131.25 131.25C131.25 127.798 128.452 125 125 125C121.548 125 118.75 127.798 118.75 131.25C118.75 134.702 121.548 137.5 125 137.5Z" stroke="#408C2B" stroke-width="8" stroke-linecap="round" stroke-linejoin="round"/>
<path d="M6.25 6.25H31.25L48 89.9375C48.5715 92.815 50.1369 95.3998 52.4222 97.2394C54.7074 99.079 57.5669 100.056 60.5 100H121.25C124.183 100.056 127.043 99.079 129.328 97.2394C131.613 95.3998 133.178 92.815 133.75 89.9375L143.75 37.5H37.5" stroke="#408C2B" stroke-width="8" stroke-linecap="round" stroke-linejoin="round"/>
</svg>
